M48
;Layer_Color=9474304
;FILE_FORMAT=2:5
INCH,TZ
;TYPE=PLATED
T1F00S00C0.01968
T2F00S00C0.04331
T3F00S00C0.11811
%
T01
X98516Y7386
X95921Y13650
X98516Y19913
X104780Y22508
X111043Y19913
X113638Y13650
X111043Y7386
X104780Y4791
Y64291
X98516Y66886
X95921Y73150
X98516Y79413
X104780Y82008
X111043Y79413
X113638Y73150
X111043Y66886
T02
X78740Y33307
Y53307
T03
X104780Y13650
Y73150
M30
